<svg id="Layer_1" data-name="Layer 1" xmlns="http://www.w3.org/2000/svg" viewBox="0 0 459.39 466.42"><defs><style>.cls-1{fill:#e83b3c;}.cls-2{fill:#3a312a;}.cls-3{fill:#8ac5dc;}.cls-4{fill:#d5de58;}.cls-5{fill:#6ca8bf;}.cls-6{fill:#e73b3c;}.cls-7{font-size:18px;fill:#fcfcfc;font-family:Poppins-ExtraBold, Poppins;font-weight:800;}</style></defs><path class="cls-1" d="M452.16,52.46c-2,23.13-26.06,26.78-26.06,26.78,20.7,1,25.86,28.12,25.86,28.12C452.4,88,478.62,79,478.62,79,459,77.78,452.16,52.46,452.16,52.46Z" transform="translate(-30.38 -30.11)"/><path class="cls-2" d="M478.8,76c-17.22-1-23.68-24-23.74-24.28a3,3,0,0,0-5.89.53c-1.72,20.43-22.64,23.92-23.52,24.06a3,3,0,0,0,.31,6c18.06.85,23,25.43,23.05,25.68a3,3,0,0,0,2.95,2.44h.25a3,3,0,0,0,2.75-2.92c.39-17,24.4-25.56,24.64-25.64a3,3,0,0,0-.8-5.83ZM451.65,96.65c-2.71-6.26-7.42-13.81-15.18-17.75,5.86-2.81,12.82-7.83,16.41-16.55,3.1,6.14,8.4,13.76,16.68,17.45C463.54,83.08,455.71,88.61,451.65,96.65Z" transform="translate(-30.38 -30.11)"/><path class="cls-1" d="M408.74,86.42c-1.38,16.36-18.43,18.94-18.43,18.94,14.64.69,18.29,19.89,18.29,19.89.31-13.69,18.85-20.09,18.85-20.09-13.89-.83-18.71-18.74-18.71-18.74Z" transform="translate(-30.38 -30.11)"/><path class="cls-2" d="M427.63,102.17c-11.54-.69-15.95-16.38-16-16.53a3,3,0,0,0-5.88.53c-1.16,13.74-15.3,16.13-15.89,16.23a3,3,0,0,0,.31,6c12.07.57,15.45,17.29,15.48,17.45a3,3,0,0,0,3,2.44h.25a3,3,0,0,0,2.75-2.92c.26-11.42,16.67-17.27,16.83-17.32a3,3,0,0,0-.8-5.83Zm-19.18,13.59a25.52,25.52,0,0,0-8.9-10.56,23.93,23.93,0,0,0,9.75-9.84c2.12,3.75,5.31,7.91,9.89,10.45A31.39,31.39,0,0,0,408.45,115.76Z" transform="translate(-30.38 -30.11)"/><path class="cls-1" d="M408.74,33.11c-1.38,16.35-18.43,18.94-18.43,18.94,14.64.69,18.29,19.89,18.29,19.89.31-13.69,18.85-20.09,18.85-20.09-13.89-.84-18.71-18.74-18.71-18.74Z" transform="translate(-30.38 -30.11)"/><path class="cls-2" d="M427.63,48.85c-11.54-.69-15.95-16.37-16-16.53a3,3,0,0,0-5.88.53c-1.16,13.74-15.3,16.14-15.89,16.23a3,3,0,0,0,.31,6c12.07.57,15.45,17.29,15.48,17.46a3,3,0,0,0,3,2.44h.25A3,3,0,0,0,411.6,72c.26-11.41,16.67-17.26,16.83-17.32a3,3,0,0,0-.8-5.83ZM408.45,62.44a25.58,25.58,0,0,0-8.9-10.56,23.91,23.91,0,0,0,9.75-9.83c2.12,3.74,5.31,7.91,9.89,10.45A31.45,31.45,0,0,0,408.45,62.44Z" transform="translate(-30.38 -30.11)"/><path class="cls-1" d="M295.91,34.25H58.81A25.44,25.44,0,0,0,33.38,59.68V453.47a25.43,25.43,0,0,0,25.43,25.42h237.1a25.42,25.42,0,0,0,25.42-25.42V59.68A25.43,25.43,0,0,0,295.91,34.25Z" transform="translate(-30.38 -30.11)"/><path class="cls-2" d="M295.91,31.25H58.81A28.46,28.46,0,0,0,30.38,59.68v326.8a3,3,0,0,0,6,0V59.68A22.46,22.46,0,0,1,58.81,37.25h237.1a22.46,22.46,0,0,1,22.42,22.43V453.47a22.45,22.45,0,0,1-22.42,22.42H58.81a22.45,22.45,0,0,1-22.43-22.42v-36a3,3,0,0,0-6,0v36a28.46,28.46,0,0,0,28.43,28.42h237.1a28.45,28.45,0,0,0,28.42-28.42V59.68A28.46,28.46,0,0,0,295.91,31.25Z" transform="translate(-30.38 -30.11)"/><path class="cls-3" d="M277.57,63.71H77.15A13.63,13.63,0,0,0,63.53,77.34V405.18a13.62,13.62,0,0,0,13.62,13.63H277.57a13.62,13.62,0,0,0,13.62-13.63V77.34a13.63,13.63,0,0,0-13.62-13.63Z" transform="translate(-30.38 -30.11)"/><path class="cls-2" d="M277.57,60.71h-36.1a3,3,0,0,0,0,6h36.1a10.64,10.64,0,0,1,10.62,10.63V405.18a10.64,10.64,0,0,1-10.62,10.63H77.15a10.64,10.64,0,0,1-10.62-10.63V77.34A10.63,10.63,0,0,1,77.15,66.72H212a3,3,0,0,0,0-6H77.15A16.63,16.63,0,0,0,60.53,77.34V405.19a16.64,16.64,0,0,0,16.62,16.62H277.57a16.64,16.64,0,0,0,16.62-16.62V77.34a16.65,16.65,0,0,0-16.62-16.63Z" transform="translate(-30.38 -30.11)"/><circle class="cls-4" cx="146.98" cy="417.75" r="16.72"/><path class="cls-2" d="M177.36,428.13a19.72,19.72,0,1,0,19.72,19.72A19.74,19.74,0,0,0,177.36,428.13Zm0,33.44a13.72,13.72,0,1,1,13.72-13.72A13.73,13.73,0,0,1,177.36,461.57Z" transform="translate(-30.38 -30.11)"/><path class="cls-5" d="M288.18,77.33a10.63,10.63,0,0,0-10.62-10.62h-30a10.63,10.63,0,0,1,10.62,10.62V405.19a10.63,10.63,0,0,1-10.62,10.62h30a10.63,10.63,0,0,0,10.62-10.62v-.7c-10-15.94-15.8-31.36-17.22-46-1.94-20.1,4.76-38.92,17.22-51.84Z" transform="translate(-30.38 -30.11)"/><path class="cls-6" d="M129.63,194.48l-6.21,92.66,23.11-4.68L151,211l-20.09-16.9C130.36,193.53,129.82,193.51,129.63,194.48Z" transform="translate(-30.38 -30.11)"/><path class="cls-6" d="M155.78,215l-1.91,30.67L175,264.28c.38.33.81.24,1.25-.26l23.4-27.23,1.89-30.65-24.06,27.15Z" transform="translate(-30.38 -30.11)"/><path class="cls-6" d="M230.1,174,207,200l-4.4,71,22.9-4.64,5.79-92.53C231.24,173,230.68,173.22,230.1,174Z" transform="translate(-30.38 -30.11)"/><path class="cls-2" d="M489.72,330.67a5.87,5.87,0,0,0-3.08-4.54l-53.71-28.35a6.85,6.85,0,0,0-8.22,1.79L399.62,329a10.82,10.82,0,0,0-1.22,1.81,7.17,7.17,0,0,0-1.3.09l-43.3,7-.07-.35c-.91-4.95-4.49-10.3-8.31-12.44L298.23,298.6c-3.61-2-5.66-.59-6.56.5s-2.17,3.49-.56,7.87l16.17,43.24a2.13,2.13,0,0,1,.07,1.32,13.75,13.75,0,0,0-.35,3.72v91.23c0,5.16,2.42,11.22,6,14.09l39.95,32.25a18.47,18.47,0,0,0,10.83,3.71,11.19,11.19,0,0,0,1.91-.16l78.68-13.05c4.76-.79,8.65-5.94,8.65-11.72v-93a12,12,0,0,0-.63-3.44,2.18,2.18,0,0,1,.71-2.39,6.07,6.07,0,0,0,.8-.73L488,336.12A6.64,6.64,0,0,0,489.72,330.67Z" transform="translate(-30.38 -30.11)"/><path class="cls-1" d="M406.55,342.94l30.12,23a2.22,2.22,0,0,1-1,3.95l-30.12,4.57a2.22,2.22,0,0,1-2.54-2.19V344.69A2.2,2.2,0,0,1,406.55,342.94Z" transform="translate(-30.38 -30.11)"/><path class="cls-1" d="M299.85,312a2.21,2.21,0,0,1,3.16-2.69l39.9,22.38c2,1.16,4.36,4.63,4.87,7.3l6.09,32.79a2.22,2.22,0,0,1-3.5,2.18l-34.15-25.36a6.88,6.88,0,0,0-2.31-1.16,2.28,2.28,0,0,1-1.55-1.39Z" transform="translate(-30.38 -30.11)"/><path class="cls-1" d="M357,487h-.4l-40-32.39a12.08,12.08,0,0,1-3.58-7.88V355.27c0-.12-.05-.22-.05-.31l.2.15L353,384.8a18.78,18.78,0,0,0,2.35,1.32,2.19,2.19,0,0,1,1.24,1.75c.18,1.66.41,3.24.41,4.52Z" transform="translate(-30.38 -30.11)"/><path class="cls-1" d="M361,377.62l-5.52-30.39a2.21,2.21,0,0,1,1.83-2.58l37.13-6a2.21,2.21,0,0,1,2.56,2.18V374a2.21,2.21,0,0,1-1.88,2.19l-30.34,4.57a10.33,10.33,0,0,1-1.36.07,2.22,2.22,0,0,1-2.19-1.87c-.07-.47-.15-.92-.23-1.34Z" transform="translate(-30.38 -30.11)"/><path class="cls-1" d="M448,471.88a4.78,4.78,0,0,1-3.53,4.33l-79,13.11h0a2.15,2.15,0,0,1-2.42-2.13v-95c0-.56,0-1.17-.05-1.81a2.23,2.23,0,0,1,2.1-2.32c.33,0,.66-.06,1-.1l79.24-12a2.4,2.4,0,0,1,2.71,2.46Z" transform="translate(-30.38 -30.11)"/><path class="cls-1" d="M451.17,366.78a.92.92,0,0,1-.93.1l-40.57-32.26a2.3,2.3,0,0,1-.33-3.22l21.89-26.74a1.35,1.35,0,0,1,1.31-.29l47.79,26.29a2.29,2.29,0,0,1,.56,3.51Z" transform="translate(-30.38 -30.11)"/><text class="cls-7" transform="translate(50.96 283.81) scale(1.16 1)">Werknemer app</text><path class="cls-2" d="M385.37,417l-2.88,40.68,10.71-2.05,2.06-31.36L386,416.83C385.71,416.56,385.46,416.55,385.37,417Z" transform="translate(-30.38 -30.11)"/><path class="cls-2" d="M397.49,426l-.88,13.47,9.8,8.16c.18.14.38.1.58-.12l10.85-12,.87-13.45L407.56,434Z" transform="translate(-30.38 -30.11)"/><path class="cls-2" d="M431.94,408l-10.7,11.42-2,31.17,10.61-2,2.68-40.64C432.47,407.52,432.21,407.64,431.94,408Z" transform="translate(-30.38 -30.11)"/></svg>